<mxfile host="Electron" modified="2024-07-21T08:09:30.433Z" agent="Mozilla/5.0 (Macintosh; Intel Mac OS X 10_15_7) AppleWebKit/537.36 (KHTML, like Gecko) draw.io/24.6.4 Chrome/124.0.6367.207 Electron/30.0.6 Safari/537.36" etag="nVQdoazwV3DY33YKUidY" version="24.6.4" type="device">
  <diagram name="페이지-1" id="jBVy3zUQ8nWMjQijNOvA">
    <mxGraphModel dx="1114" dy="682" grid="1" gridSize="10" guides="1" tooltips="1" connect="1" arrows="1" fold="1" page="1" pageScale="1" pageWidth="827" pageHeight="1169" math="0" shadow="0">
      <root>
        <mxCell id="0" />
        <mxCell id="1" parent="0" />
        <mxCell id="sulDP6-McVjo92knmJIp-1" value="카탈로그&lt;div&gt;바운디드 컨텍스트&lt;/div&gt;" style="rounded=0;whiteSpace=wrap;html=1;fillColor=#d5e8d4;strokeColor=#82b366;" vertex="1" parent="1">
          <mxGeometry x="300" y="390" width="120" height="60" as="geometry" />
        </mxCell>
        <mxCell id="sulDP6-McVjo92knmJIp-4" style="edgeStyle=orthogonalEdgeStyle;rounded=0;orthogonalLoop=1;jettySize=auto;html=1;endArrow=none;endFill=0;" edge="1" parent="1" source="sulDP6-McVjo92knmJIp-2" target="sulDP6-McVjo92knmJIp-1">
          <mxGeometry relative="1" as="geometry" />
        </mxCell>
        <mxCell id="sulDP6-McVjo92knmJIp-5" value="upstream component" style="edgeLabel;html=1;align=center;verticalAlign=middle;resizable=0;points=[];fontStyle=1;fontSize=12;fontColor=#3333FF;" vertex="1" connectable="0" parent="sulDP6-McVjo92knmJIp-4">
          <mxGeometry x="-0.7187" relative="1" as="geometry">
            <mxPoint as="offset" />
          </mxGeometry>
        </mxCell>
        <mxCell id="sulDP6-McVjo92knmJIp-6" value="downstream component" style="edgeLabel;html=1;align=center;verticalAlign=middle;resizable=0;points=[];fontStyle=1;fontSize=12;fontColor=#97D077;" vertex="1" connectable="0" parent="sulDP6-McVjo92knmJIp-4">
          <mxGeometry x="0.7563" y="2" relative="1" as="geometry">
            <mxPoint as="offset" />
          </mxGeometry>
        </mxCell>
        <mxCell id="sulDP6-McVjo92knmJIp-2" value="추천&lt;div&gt;바운디드 컨텍스트&lt;/div&gt;" style="rounded=0;whiteSpace=wrap;html=1;fillColor=#dae8fc;strokeColor=#6c8ebf;" vertex="1" parent="1">
          <mxGeometry x="300" y="170" width="120" height="60" as="geometry" />
        </mxCell>
        <mxCell id="sulDP6-McVjo92knmJIp-3" value="REST API 제공" style="text;html=1;align=center;verticalAlign=middle;whiteSpace=wrap;rounded=0;fillColor=#dae8fc;strokeColor=#6c8ebf;sketch=1;curveFitting=1;jiggle=2;" vertex="1" parent="1">
          <mxGeometry x="430" y="185" width="60" height="30" as="geometry" />
        </mxCell>
      </root>
    </mxGraphModel>
  </diagram>
</mxfile>
